# xmcd
#
# Track frame offsets:
#	150
#	13631
#	28140
#	44204
#	58105
#	69487
#	84787
#	87305
#	97774
#	112588
#	123849
#	138780
#
# Disc length: 2164 seconds
#
# Revision: 2
# Processed by: cddbd v1.4PL0 Copyright (c) Steve Scherf et al.
# Submitted via: audiograbber 1.82.02
#
DISCID=8e08720c
DTITLE=William Lee Ellis - The Full Catastrophe
DYEAR=1900
DGENRE=Bluegrass
TTITLE0=Dark World Coming
TTITLE1=Paratrooper's Blues
TTITLE2=Jackpot Rag
TTITLE3=John Ate the Locust and the Honey
TTITLE4=Darkness as the Noonday
TTITLE5=That Angel's Trumpet Sound
TTITLE6=?
TTITLE7=Evil Witness Song
TTITLE8=In My Time of Dying
TTITLE9='Til the Last Train Comes Along
TTITLE10=Bouncing Ball
TTITLE11=Trouble I Once Knew
EXTD=
EXTT0=
EXTT1=
EXTT2=
EXTT3=
EXTT4=
EXTT5=
EXTT6=
EXTT7=
EXTT8=
EXTT9=
EXTT10=
EXTT11=
PLAYORDER=
